<svg id="Flat" height="512" viewBox="0 0 512 512" width="512" xmlns="http://www.w3.org/2000/svg"><path d="m160 336h32a16 16 0 0 1 16 16v80a16 16 0 0 1 -16 16h-32a0 0 0 0 1 0 0v-112a0 0 0 0 1 0 0z" fill="#7e8589"/><path d="m128 320h32v144h-32z" fill="#a36eb8"/><path d="m96 336h32a0 0 0 0 1 0 0v112a0 0 0 0 1 0 0h-32a32 32 0 0 1 -32-32v-48a32 32 0 0 1 32-32z" fill="#c082d9"/><path d="m304 336h32a16 16 0 0 1 16 16v80a16 16 0 0 1 -16 16h-32a0 0 0 0 1 0 0v-112a0 0 0 0 1 0 0z" fill="#7e8589" transform="matrix(-1 0 0 -1 656 784)"/><path d="m352 320h32v144h-32z" fill="#a36eb8" transform="matrix(-1 0 0 -1 736 784)"/><path d="m416 336h32a0 0 0 0 1 0 0v112a0 0 0 0 1 0 0h-32a32 32 0 0 1 -32-32v-48a32 32 0 0 1 32-32z" fill="#c082d9" transform="matrix(-1 0 0 -1 832 784)"/><path d="m96 272v64h32v-64a128 128 0 0 1 128-128 128 128 0 0 1 128 128v64h32v-64a160 160 0 0 0 -160-160 160 160 0 0 0 -160 160z" fill="#885b99"/><g fill="#f7b030"><path d="m124.923 41.694a8 8 0 0 0 -6.863-1.455l-64 16a8 8 0 0 0 -6.06 7.761v57.376a24 24 0 1 0 16 22.624v-73.754l48-12v47.13a24 24 0 1 0 16 22.624v-80a8 8 0 0 0 -3.077-6.306zm-84.923 110.306a8 8 0 1 1 8-8 8.009 8.009 0 0 1 -8 8zm64-16a8 8 0 1 1 8-8 8.009 8.009 0 0 1 -8 8z"/><path d="m495.761 30.061a8 8 0 0 0 -9.7-5.821l-64 16a8 8 0 0 0 -6.061 7.76v57.376a24 24 0 1 0 16 22.624v-73.752l57.94-14.485a8 8 0 0 0 5.821-9.702zm-87.761 105.939a8 8 0 1 1 8-8 8.009 8.009 0 0 1 -8 8z"/><path d="m272 200a8 8 0 0 0 -8 8v57.376a24 24 0 1 0 16 22.624v-80a8 8 0 0 0 -8-8zm-16 96a8 8 0 1 1 8-8 8.009 8.009 0 0 1 -8 8z"/></g></svg>