<svg xmlns="http://www.w3.org/2000/svg" xmlns:xlink="http://www.w3.org/1999/xlink" width="500" zoomAndPan="magnify" viewBox="0 0 375 374.999991" height="500" preserveAspectRatio="xMidYMid meet" version="1.0"><defs><clipPath id="05e5571ecc"><path d="M 20 19 L 355.59375 19 L 355.59375 356.25 L 20 356.25 Z M 20 19 " clip-rule="nonzero"/></clipPath></defs><rect x="-37.5" width="450" fill="#ffffff" y="-37.499999" height="449.999989" fill-opacity="1"/><rect x="-37.5" width="450" fill="#ffffff" y="-37.499999" height="449.999989" fill-opacity="1"/><rect x="-37.5" width="450" fill="#ffffff" y="-37.499999" height="449.999989" fill-opacity="1"/><g clip-path="url(#05e5571ecc)"><path fill="#d9d9d9" d="M 354.351562 353.710938 C 354.421875 353.625 354.488281 353.539062 354.546875 353.445312 C 354.609375 353.355469 354.664062 353.261719 354.71875 353.167969 C 354.769531 353.085938 354.820312 353.003906 354.867188 352.914062 C 354.914062 352.820312 354.960938 352.726562 355.007812 352.628906 C 355.046875 352.539062 355.09375 352.449219 355.132812 352.355469 C 355.167969 352.265625 355.203125 352.171875 355.234375 352.078125 C 355.269531 351.976562 355.3125 351.878906 355.339844 351.777344 C 355.367188 351.683594 355.386719 351.585938 355.414062 351.488281 C 355.4375 351.386719 355.46875 351.285156 355.488281 351.175781 C 355.511719 351.066406 355.527344 350.953125 355.539062 350.84375 C 355.554688 350.753906 355.570312 350.660156 355.582031 350.566406 C 355.601562 350.363281 355.613281 350.152344 355.613281 349.945312 L 355.613281 25.558594 C 355.613281 23.011719 354.078125 20.710938 351.71875 19.734375 C 349.363281 18.761719 346.648438 19.300781 344.84375 21.105469 L 224.941406 140.9375 C 222.480469 143.398438 222.480469 147.390625 224.941406 149.851562 C 227.40625 152.316406 231.398438 152.316406 233.863281 149.851562 L 343 40.777344 L 343 334.730469 L 30.980469 22.886719 C 28.519531 20.421875 24.527344 20.421875 22.0625 22.886719 C 19.597656 25.347656 19.597656 29.335938 22.0625 31.800781 L 344.84375 354.402344 C 344.851562 354.410156 344.859375 354.414062 344.859375 354.417969 C 345.003906 354.558594 345.15625 354.691406 345.304688 354.820312 C 345.382812 354.882812 345.460938 354.933594 345.539062 354.992188 C 345.625 355.058594 345.710938 355.128906 345.800781 355.1875 C 345.894531 355.25 345.992188 355.300781 346.085938 355.355469 C 346.167969 355.40625 346.246094 355.457031 346.332031 355.503906 C 346.429688 355.554688 346.527344 355.597656 346.625 355.644531 C 346.710938 355.683594 346.800781 355.730469 346.890625 355.765625 C 346.984375 355.808594 347.082031 355.839844 347.175781 355.871094 C 347.273438 355.90625 347.375 355.945312 347.472656 355.976562 C 347.570312 356.007812 347.667969 356.027344 347.761719 356.050781 C 347.863281 356.078125 347.964844 356.105469 348.074219 356.128906 C 348.183594 356.148438 348.296875 356.160156 348.40625 356.175781 C 348.5 356.191406 348.589844 356.207031 348.683594 356.21875 C 348.890625 356.238281 349.097656 356.25 349.304688 356.25 C 349.515625 356.25 349.71875 356.238281 349.929688 356.21875 C 350.019531 356.207031 350.109375 356.191406 350.203125 356.175781 C 350.3125 356.160156 350.429688 356.148438 350.539062 356.128906 C 350.644531 356.105469 350.746094 356.078125 350.851562 356.050781 C 350.945312 356.027344 351.042969 356.007812 351.136719 355.976562 C 351.238281 355.945312 351.335938 355.90625 351.433594 355.871094 C 351.53125 355.839844 351.625 355.808594 351.71875 355.765625 C 351.808594 355.730469 351.898438 355.683594 351.988281 355.644531 C 352.085938 355.597656 352.183594 355.554688 352.277344 355.503906 C 352.363281 355.457031 352.445312 355.40625 352.523438 355.355469 C 352.621094 355.300781 352.71875 355.25 352.808594 355.1875 C 352.898438 355.128906 352.984375 355.058594 353.070312 354.992188 C 353.148438 354.933594 353.226562 354.882812 353.304688 354.820312 C 353.457031 354.691406 353.609375 354.558594 353.75 354.417969 C 353.753906 354.414062 353.757812 354.410156 353.765625 354.402344 C 353.769531 354.398438 353.773438 354.394531 353.777344 354.386719 C 353.917969 354.246094 354.054688 354.09375 354.183594 353.941406 C 354.246094 353.867188 354.296875 353.789062 354.351562 353.710938 Z M 143.191406 354.402344 C 145.652344 351.941406 145.652344 347.949219 143.191406 345.488281 L 40.859375 243.214844 C 39.054688 241.410156 36.34375 240.871094 33.984375 241.847656 C 31.628906 242.824219 30.09375 245.121094 30.09375 247.671875 L 30.09375 349.945312 C 30.09375 353.425781 32.914062 356.25 36.398438 356.25 C 39.882812 356.25 42.707031 353.425781 42.707031 349.945312 L 42.707031 262.890625 L 134.273438 354.402344 C 135.503906 355.632812 137.117188 356.25 138.730469 356.25 C 140.34375 356.25 141.960938 355.632812 143.191406 354.402344 Z M 241.0625 356.25 C 239.449219 356.25 237.835938 355.632812 236.601562 354.402344 L 31.9375 149.851562 C 29.476562 147.390625 29.476562 143.398438 31.9375 140.9375 C 34.402344 138.476562 38.394531 138.476562 40.859375 140.9375 L 245.523438 345.488281 C 247.984375 347.949219 247.984375 351.941406 245.523438 354.402344 C 244.289062 355.632812 242.679688 356.25 241.0625 356.25 " fill-opacity="1" fill-rule="nonzero"/></g></svg>