<svg xmlns="http://www.w3.org/2000/svg" xmlns:xlink="http://www.w3.org/1999/xlink" width="500" zoomAndPan="magnify" viewBox="0 0 375 374.999991" height="500" preserveAspectRatio="xMidYMid meet" version="1.0"><defs><g/><clipPath id="0305ee3b2d"><path d="M 1.257812 2.160156 L 374.644531 2.160156 L 374.644531 299.402344 L 1.257812 299.402344 Z M 1.257812 2.160156 " clip-rule="nonzero"/></clipPath></defs><g clip-path="url(#0305ee3b2d)"><path fill="#dab264" d="M 243.753906 182.59375 C 220.25 190.164062 200.492188 191.824219 187.957031 191.824219 C 175.421875 191.824219 155.664062 190.164062 132.164062 182.597656 L 118.820312 144.472656 C 143.144531 158.039062 168.84375 163.121094 187.953125 163.121094 C 207.066406 163.121094 232.769531 158.039062 257.097656 144.464844 Z M 253.3125 179.289062 L 267.53125 138.695312 C 267.722656 138.144531 268.25 137.773438 268.832031 137.773438 L 318.519531 137.773438 C 300.390625 155.699219 278.09375 169.894531 253.3125 179.289062 Z M 207.558594 285.976562 C 206.402344 289.265625 203.285156 291.480469 199.789062 291.480469 L 176.125 291.480469 C 172.628906 291.480469 169.511719 289.265625 168.355469 285.976562 L 135.4375 191.933594 C 157.421875 198.324219 175.875 199.753906 187.957031 199.753906 C 200.039062 199.753906 218.492188 198.324219 240.476562 191.933594 Z M 57.394531 137.773438 L 107.082031 137.773438 C 107.667969 137.773438 108.191406 138.144531 108.382812 138.695312 L 122.601562 179.285156 C 97.820312 169.894531 75.519531 155.699219 57.394531 137.773438 Z M 321.5625 64.753906 C 341.433594 63.457031 374.421875 49.285156 374.421875 2.152344 L 366.480469 2.152344 C 366.480469 41.117188 341.128906 54.296875 323.960938 56.558594 C 328.222656 40.671875 330.664062 22.640625 330.664062 2.152344 L 322.722656 2.152344 C 322.722656 37.085938 315.355469 64.5625 303.789062 86.035156 C 286.621094 84.105469 260.40625 71.148438 260.40625 31.527344 L 252.460938 31.527344 C 252.460938 74.285156 279.617188 89.914062 299.496094 93.414062 C 270.105469 140.480469 219.515625 155.195312 187.953125 155.195312 C 156.386719 155.195312 105.796875 140.480469 76.40625 93.414062 C 96.285156 89.914062 123.441406 74.285156 123.441406 31.527344 L 115.5 31.527344 C 115.5 71.148438 89.28125 84.105469 72.113281 86.035156 C 60.546875 64.5625 53.183594 37.085938 53.183594 2.152344 L 45.238281 2.152344 C 45.238281 22.640625 47.679688 40.671875 51.941406 56.558594 C 34.773438 54.296875 9.421875 41.117188 9.421875 2.152344 L 1.480469 2.152344 C 1.480469 49.285156 34.46875 63.457031 54.339844 64.753906 C 63.683594 93.644531 79.386719 114.757812 97.464844 129.847656 L 49.722656 129.847656 C 47.867188 129.847656 46.1875 130.941406 45.441406 132.644531 C 44.6875 134.347656 45.019531 136.328125 46.285156 137.707031 C 67.539062 160.648438 95.066406 178.28125 125.949219 188.871094 L 160.859375 288.589844 C 163.121094 295.058594 169.257812 299.410156 176.125 299.410156 L 199.789062 299.410156 C 206.660156 299.410156 212.792969 295.058594 215.054688 288.589844 L 249.964844 188.871094 C 280.851562 178.277344 308.378906 160.648438 329.640625 137.699219 C 330.898438 136.332031 331.226562 134.347656 330.476562 132.644531 C 329.726562 130.945312 328.046875 129.847656 326.191406 129.847656 L 278.4375 129.847656 C 296.515625 114.757812 312.21875 93.644531 321.5625 64.753906 " fill-opacity="1" fill-rule="nonzero"/></g><g fill="#dab264" fill-opacity="1"><g transform="translate(3.867152, 368.198208)"><g><path d="M 39.890625 -21.265625 C 39.890625 -14.398438 37.929688 -9.140625 34.015625 -5.484375 C 30.109375 -1.828125 24.460938 0 17.078125 0 L 5.25 0 L 5.25 -41.734375 L 18.359375 -41.734375 C 25.171875 -41.734375 30.460938 -39.9375 34.234375 -36.34375 C 38.003906 -32.75 39.890625 -27.722656 39.890625 -21.265625 Z M 30.6875 -21.046875 C 30.6875 -30.003906 26.726562 -34.484375 18.8125 -34.484375 L 14.109375 -34.484375 L 14.109375 -7.3125 L 17.90625 -7.3125 C 26.425781 -7.3125 30.6875 -11.890625 30.6875 -21.046875 Z M 30.6875 -21.046875 "/></g></g></g><g fill="#dab264" fill-opacity="1"><g transform="translate(52.933818, 368.198208)"><g><path d="M 29.296875 0 L 5.25 0 L 5.25 -41.734375 L 29.296875 -41.734375 L 29.296875 -34.484375 L 14.109375 -34.484375 L 14.109375 -25.328125 L 28.234375 -25.328125 L 28.234375 -18.078125 L 14.109375 -18.078125 L 14.109375 -7.3125 L 29.296875 -7.3125 Z M 29.296875 0 "/></g></g></g><g fill="#dab264" fill-opacity="1"><g transform="translate(91.466542, 368.198208)"><g><path d="M 29.0625 -41.734375 L 38 -41.734375 L 23.8125 0 L 14.15625 0 L 0 -41.734375 L 8.9375 -41.734375 L 16.78125 -16.90625 C 17.21875 -15.4375 17.671875 -13.722656 18.140625 -11.765625 C 18.609375 -9.816406 18.898438 -8.460938 19.015625 -7.703125 C 19.222656 -9.453125 19.9375 -12.519531 21.15625 -16.90625 Z M 29.0625 -41.734375 "/></g></g></g><g fill="#dab264" fill-opacity="1"><g transform="translate(135.251966, 368.198208)"><g><path d="M 1.734375 -12.109375 L 1.734375 -19.234375 L 17.078125 -19.234375 L 17.078125 -12.109375 Z M 1.734375 -12.109375 "/></g></g></g><g fill="#dab264" fill-opacity="1"><g transform="translate(159.853614, 368.198208)"><g><path d="M 22.921875 0 L 12.875 -32.75 L 12.625 -32.75 C 12.976562 -26.082031 13.15625 -21.632812 13.15625 -19.40625 L 13.15625 0 L 5.25 0 L 5.25 -41.734375 L 17.296875 -41.734375 L 27.171875 -9.828125 L 27.34375 -9.828125 L 37.828125 -41.734375 L 49.875 -41.734375 L 49.875 0 L 41.625 0 L 41.625 -19.75 C 41.625 -20.6875 41.632812 -21.765625 41.65625 -22.984375 C 41.6875 -24.203125 41.816406 -27.4375 42.046875 -32.6875 L 41.796875 -32.6875 L 31.03125 0 Z M 22.921875 0 "/></g></g></g><g fill="#dab264" fill-opacity="1"><g transform="translate(220.76742, 368.198208)"><g><path d="M 39.234375 -41.734375 L 39.234375 -14.734375 C 39.234375 -11.648438 38.539062 -8.945312 37.15625 -6.625 C 35.78125 -4.300781 33.785156 -2.519531 31.171875 -1.28125 C 28.566406 -0.0390625 25.484375 0.578125 21.921875 0.578125 C 16.554688 0.578125 12.390625 -0.796875 9.421875 -3.546875 C 6.453125 -6.304688 4.96875 -10.070312 4.96875 -14.84375 L 4.96875 -41.734375 L 13.796875 -41.734375 L 13.796875 -16.1875 C 13.796875 -12.96875 14.441406 -10.609375 15.734375 -9.109375 C 17.023438 -7.609375 19.164062 -6.859375 22.15625 -6.859375 C 25.050781 -6.859375 27.148438 -7.613281 28.453125 -9.125 C 29.753906 -10.632812 30.40625 -13.007812 30.40625 -16.25 L 30.40625 -41.734375 Z M 39.234375 -41.734375 "/></g></g></g><g fill="#dab264" fill-opacity="1"><g transform="translate(270.747611, 368.198208)"><g><path d="M 29.890625 -11.59375 C 29.890625 -7.820312 28.53125 -4.847656 25.8125 -2.671875 C 23.101562 -0.503906 19.332031 0.578125 14.5 0.578125 C 10.050781 0.578125 6.113281 -0.257812 2.6875 -1.9375 L 2.6875 -10.15625 C 5.5 -8.90625 7.878906 -8.019531 9.828125 -7.5 C 11.785156 -6.988281 13.570312 -6.734375 15.1875 -6.734375 C 17.125 -6.734375 18.613281 -7.101562 19.65625 -7.84375 C 20.695312 -8.59375 21.21875 -9.695312 21.21875 -11.15625 C 21.21875 -11.976562 20.988281 -12.707031 20.53125 -13.34375 C 20.070312 -13.976562 19.398438 -14.59375 18.515625 -15.1875 C 17.628906 -15.78125 15.828125 -16.722656 13.109375 -18.015625 C 10.554688 -19.210938 8.640625 -20.363281 7.359375 -21.46875 C 6.085938 -22.570312 5.070312 -23.851562 4.3125 -25.3125 C 3.550781 -26.78125 3.171875 -28.5 3.171875 -30.46875 C 3.171875 -34.15625 4.421875 -37.054688 6.921875 -39.171875 C 9.421875 -41.285156 12.878906 -42.34375 17.296875 -42.34375 C 19.472656 -42.34375 21.546875 -42.082031 23.515625 -41.5625 C 25.484375 -41.050781 27.539062 -40.328125 29.6875 -39.390625 L 26.84375 -32.515625 C 24.613281 -33.429688 22.769531 -34.066406 21.3125 -34.421875 C 19.851562 -34.785156 18.421875 -34.96875 17.015625 -34.96875 C 15.335938 -34.96875 14.050781 -34.578125 13.15625 -33.796875 C 12.257812 -33.015625 11.8125 -32 11.8125 -30.75 C 11.8125 -29.96875 11.992188 -29.285156 12.359375 -28.703125 C 12.722656 -28.117188 13.300781 -27.554688 14.09375 -27.015625 C 14.882812 -26.472656 16.753906 -25.5 19.703125 -24.09375 C 23.597656 -22.226562 26.269531 -20.359375 27.71875 -18.484375 C 29.164062 -16.609375 29.890625 -14.3125 29.890625 -11.59375 Z M 29.890625 -11.59375 "/></g></g></g><g fill="#dab264" fill-opacity="1"><g transform="translate(308.73792, 368.198208)"><g><path d="M 5.25 0 L 5.25 -41.734375 L 14.109375 -41.734375 L 14.109375 0 Z M 5.25 0 "/></g></g></g><g fill="#dab264" fill-opacity="1"><g transform="translate(333.881961, 368.198208)"><g><path d="M 22.984375 -34.96875 C 19.648438 -34.96875 17.066406 -33.71875 15.234375 -31.21875 C 13.410156 -28.71875 12.5 -25.226562 12.5 -20.75 C 12.5 -11.445312 15.992188 -6.796875 22.984375 -6.796875 C 25.910156 -6.796875 29.457031 -7.53125 33.625 -9 L 33.625 -1.5625 C 30.195312 -0.132812 26.375 0.578125 22.15625 0.578125 C 16.082031 0.578125 11.4375 -1.265625 8.21875 -4.953125 C 5 -8.640625 3.390625 -13.925781 3.390625 -20.8125 C 3.390625 -25.15625 4.179688 -28.957031 5.765625 -32.21875 C 7.347656 -35.476562 9.617188 -37.976562 12.578125 -39.71875 C 15.535156 -41.46875 19.003906 -42.34375 22.984375 -42.34375 C 27.035156 -42.34375 31.109375 -41.359375 35.203125 -39.390625 L 32.34375 -32.203125 C 30.78125 -32.941406 29.207031 -33.585938 27.625 -34.140625 C 26.050781 -34.691406 24.503906 -34.96875 22.984375 -34.96875 Z M 22.984375 -34.96875 "/></g></g></g></svg>